<?xml version="1.0" encoding="UTF-8" standalone="no"?>
<svg
        xmlns="http://www.w3.org/2000/svg"
        version="1.1"
        viewBox="0 0 85.9 85.43"
        xml:space="preserve">
    <g>
		<path fill="#FCEA10"
              d="m 62.43,27.38 c -4.325799,8.983265 -10.774588,17.354874 -11.963032,27.518862 -0.05666,2.931065 -0.508859,7.002826 2.375498,8.767171 3.799996,0.857703 6.273994,-3.167955 7.165659,-6.305408 5.904123,-14.8022 12.60457,-29.560487 22.707417,-42.02478 1.668751,-3.596858 -3.979871,-5.4708774 -5.039034,-1.589608 -9.568025,12.15416 -16.009518,26.366573 -21.90134,40.561846 -0.511703,1.62722 -1.225549,5.69055 -0.540654,1.771795 C 56.558407,46.22338 62.848918,38.14867 66.949446,29.366987 67.737217,26.813751 63.655738,24.649695 62.43,27.38 Z M 6.97,68.25 C 14.846636,52.731849 22.858938,37.067218 34.01,23.59 32.7,22.58 31.39,21.57 30.08,20.56 23.318296,33.419132 16.937825,46.557162 12.418611,60.387715 c -1.728809,3.457427 2.057439,8.790056 5.245989,4.723872 5.785997,-5.397081 9.465309,-12.613952 15.245227,-18.032915 4.002328,-3.726683 7.5122,-8.060221 12.036423,-11.181797 1.77384,-0.808048 3.271046,-0.7471 1.47375,-2.716875 -1.4399,-4.116269 -3.396983,2.413298 -5.102905,3.774155 -1.605263,2.431388 -3.575239,4.664566 -4.943091,7.225611 0.09769,4.506334 5.132938,2.531945 7.178652,0.643359 3.515563,-2.331293 7.2066,-4.676507 9.985606,-7.857012 0.91504,-3.864904 -4.407978,-4.093944 -5.889912,-1.219672 C 44.544671,38.310663 41.179081,40.552937 37.64,42.47 c 1.14,1.14 2.28,2.28 3.42,3.42 2.941715,-4.255713 6.125481,-8.365352 8.914316,-12.713086 0.05628,-4.853346 -6.578425,-3.168674 -8.650722,-0.588476 -9.453529,7.668723 -17.826738,16.627551 -24.917656,26.517109 -0.975423,1.690018 -5.020624,3.651399 -1.135938,3.828203 3.460444,1.975415 1.216115,-3.341454 3.070662,-5.136011 3.790691,-9.30635 7.660744,-18.593481 12.330998,-27.504341 0.861994,-3.335716 5.414704,-6.714051 3.272659,-10.193855 -2.56608,-2.633798 -4.617227,1.492503 -6.093281,3.21894 C 17.66052,36.529109 9.8511687,51.369678 2.4518726,66.261255 1.6289409,68.829791 5.7347529,70.958373 6.97,68.25 Z"/>
    </g>
</svg>