<?xml version="1.0" encoding="utf-8"?>
<!-- Generator: Adobe Illustrator 23.0.0, SVG Export Plug-In . SVG Version: 6.00 Build 0)  -->
<svg version="1.1" id="Calque_1" xmlns="http://www.w3.org/2000/svg" xmlns:xlink="http://www.w3.org/1999/xlink" x="0px" y="0px"
	 viewBox="0 0 85.9 85.43" style="enable-background:new 0 0 85.9 85.43;" xml:space="preserve">
<g>
	<g>
		<path d="M53.29,17.31c-4.31-1.29-12.16-2.76-15.98,0.6c-3.69,3.24-3.55,11.61-3.53,16.01c0.83-0.83,1.67-1.67,2.5-2.5
			c-6.09-0.76-10.01-0.03-9.56,6.52c0.13,1.83-0.1,5.08,1.42,6.5c1.81,1.69,5.51,0.98,7.68,1.02c-0.83-0.83-1.67-1.67-2.5-2.5
			c0,7.27,0,14.53-0.01,21.8c0,1.03,0.77,2.2,1.84,2.41c3.55,0.7,10.97,2.72,13.02-1.5c1.23-2.53,0.22-6.73,0.18-9.46
			c-0.06-4.56-0.12-9.12-0.18-13.68c-1.05,0.8-2.11,1.61-3.16,2.41c2.52,0.54,4.96,0.85,7.53,0.94c1.34,0.05,2.51-1.18,2.5-2.5
			c-0.03-2.78,0.91-7.33-0.89-9.75c-1.78-2.38-6.22-1.71-8.78-1.86c0.83,0.83,1.67,1.67,2.5,2.5c0-1.3-0.44-2.77,0.61-3.29
			c1.01-0.5,4.15,0.36,5.29,0.46c1.36,0.12,2.49-1.25,2.5-2.5c0.03-3.09,0.05-6.18,0.08-9.27c0.03-3.22-4.97-3.22-5,0
			c-0.03,3.09-0.05,6.18-0.08,9.27c0.83-0.83,1.67-1.67,2.5-2.5c-2.84-0.26-6.82-1.32-9.36,0.52c-2.64,1.9-1.54,4.6-1.54,7.32
			c0,1.41,1.15,2.42,2.5,2.5c1.21,0.07,2.43,0.14,3.64,0.2c0.89-0.85,1.21-0.73,0.97,0.35c0.63,1.37,0.04,4.53,0.06,6.06
			c0.83-0.83,1.67-1.67,2.5-2.5c-2.11-0.08-4.13-0.32-6.2-0.76c-1.56-0.33-3.19,0.71-3.16,2.41c0.06,4.56,0.12,9.12,0.18,13.68
			c0.01,0.87,0.53,5.14,0.08,5.86c-1.27,2.02-4.91,0.68-6.95,0.27c0.61,0.8,1.22,1.61,1.84,2.41c0-7.27,0-14.53,0.01-21.8
			c0-1.37-1.15-2.48-2.5-2.5c-1.6-0.03-3.69,0.17-5.25-0.2c0.58,0.58,1.16,1.16,1.75,1.75c-0.14-0.38-1.18-5.47-0.75-5.92
			c0.48-0.51,4.13,0.26,4.71,0.34c1.34,0.17,2.51-1.28,2.5-2.5c-0.02-3.24-0.46-8.86,1.52-11.56c2.08-2.84,8.88-1.06,11.66-0.23
			C55.05,23.06,56.37,18.23,53.29,17.31L53.29,17.31z"/>
	</g>
</g>
<g>
	<g>
		<path d="M51.52,2.09C34.95-0.01,17.88,6.23,8.56,20.51C4.1,27.35,2.15,35.3,2.55,43.43c0.4,8.36,1.7,18.15,6.45,25.25
			c4.49,6.71,12.75,10.23,20.13,12.75c8.54,2.92,17.06,3.08,25.49-0.23c7.33-2.88,14.77-6.85,19.76-13.11
			c5.05-6.35,7.17-14.28,8.26-22.19c1.37-10,0.58-18.46-5.9-26.51c-5.6-6.96-13.98-14.57-22.84-16.71
			c-3.13-0.75-4.46,4.07-1.33,4.82C61,9.54,69.84,17.69,74.58,24.85c5.34,8.06,4.1,17.89,1.93,26.86
			c-2.38,9.81-7.74,16.77-16.6,21.55c-9,4.85-17.79,6.93-27.78,3.89c-9.58-2.92-18.64-7.45-21.86-17.54
			C7.53,51.01,6.2,40.55,8.78,31.8c5.45-18.46,24.7-27,42.74-24.71C54.7,7.5,54.67,2.49,51.52,2.09L51.52,2.09z"/>
	</g>
</g>
</svg>
