<?xml version="1.0" encoding="UTF-8" standalone="no"?>
<!-- Generator: Adobe Illustrator 23.0.0, SVG Export Plug-In . SVG Version: 6.00 Build 0)  -->

<svg
        xmlns="http://www.w3.org/2000/svg"
        version="1.1"
        viewBox="0 0 85.9 85.43">

    <path d="M 51.52,2.09 C 35.32233,-0.15707007 17.5367,6.436236 8.56,20.51 2.7670148,29.08054 1.6079773,39.86565 3.0585938,49.90375 c 1.0213434,9.369169 3.960912,19.689501 12.3379102,25.094707 7.000515,4.481548 15.049165,7.576018 23.328867,8.514727 10.747758,1.044528 21.146164,-3.683032 29.74417,-9.730603 C 77.563408,67.31301 81.467664,56.104813 82.702623,45.432374 84.13707,36.428497 82.852029,26.512655 76.74,19.39 70.587162,12.001003 62.988748,4.8081707 53.334868,2.6022949 48.967344,3.0708062 51.12539,8.862343 54.948032,8.2290033 63.578474,11.724976 70.64443,18.545501 75.50552,26.38135 80.287193,35.33542 78.246819,46.005244 75.4768,55.256465 72.544965,64.687763 64.644727,71.660552 55.701255,75.321592 47.525896,79.199389 37.875944,79.608932 29.453722,76.283044 21.214933,73.623895 12.858759,68.338559 10.27,59.61 6.4152273,47.569909 5.5868223,33.269971 13.202151,22.468499 21.634514,10.137153 37.714576,5.1626052 52.078655,7.1058081 55.005188,6.7195325 54.080643,2.1955188 51.52,2.09 Z m 1.77,15.22 c -5.000702,-1.317634 -10.948155,-2.690121 -15.610299,0.298997 -3.883384,3.444817 -3.703196,9.217904 -3.902797,13.992445 -0.684139,3.570941 1.071999,1.273283 2.443188,-0.121534 -3.133047,-0.669178 -8.868316,-0.720192 -9.399353,3.799531 -0.03422,3.414149 -1.029779,9.257164 3.465477,10.137941 1.757886,0.04257 7.430759,0.915979 4.069729,-1.421435 -2.331102,-2.641252 -0.414997,4.970925 -1.036351,6.45851 0.08858,5.025297 -0.183873,10.081604 0.127437,15.087108 2.541758,3.032266 7.748552,2.743889 11.509834,2.487275 4.987812,-1.087943 3.816909,-7.010472 3.447334,-10.732315 C 48.250034,52.376992 48.258682,47.451803 48.17,42.53 c -1.680689,1.26838 -4.613434,2.89319 -0.814529,2.849172 2.553021,0.179442 7.217586,1.831379 7.684529,-1.999172 -0.111309,-3.555934 1.438609,-8.463271 -2.14187,-10.792581 -1.422235,-0.66736 -8.831595,-1.863253 -6.552093,0.158618 2.648144,3.633799 0.139933,-2.27004 3.226307,-1.919162 3.843884,1.7646 8.060978,-0.120947 6.723462,-4.78375 -0.472743,-2.900191 1.774562,-8.823991 -2.889966,-8.750391 -3.717801,1.300581 -1.443683,6.359804 -2.114902,9.329766 -0.74406,3.656119 1.066323,1.22017 2.419154,-0.122592 C 50.476147,26.01042 45.164978,24.726821 43.055625,28.522812 42.586468,31.155271 41.74822,36.174206 45.37,36.78 c 2.79674,0.513991 5.685204,-1.550663 4.900566,2.666055 -0.475104,3.005123 -0.440311,4.852599 1.721508,1.991871 0.814135,-1.344864 -4.811027,-0.517616 -6.236976,-1.368844 -2.917631,-0.0172 -2.643961,3.192242 -2.538777,5.231328 0.03394,5.455156 0.162801,10.915287 0.349851,16.356758 C 42.380456,65.63433 33.546332,59.839177 38.33,64.76 38.2948,57.327587 38.40037,49.887962 38.28795,42.460059 c -0.472852,-3.14694 -7.300107,-2.026306 -7.209931,-1.712041 2.877242,3.392965 -0.841339,-3.808453 0.828388,-4.793116 3.740655,1.292455 8.388873,0.128427 6.844219,-4.818339 -0.337427,-4.225723 0.357346,-11.246534 6.277798,-10.307605 3.203822,-0.411532 10.09113,4.062324 9.940886,-1.80575 C 54.786231,18.191995 54.104377,17.529689 53.29,17.31 Z"/>
</svg>