<svg xmlns="http://www.w3.org/2000/svg"
     version="1.1"
     viewBox="0 0 85.9 85.43">
    <defs>
        <symbol id="icon-facebook" viewBox="0 0 85.9 85.43">
            <path d="M 51.52,2.09 C 35.32233,-0.15707007 17.5367,6.436236 8.56,20.51 2.7670148,29.08054 1.6079773,39.86565 3.0585938,49.90375 c 1.0213434,9.369169 3.960912,19.689501 12.3379102,25.094707 7.000515,4.481548 15.049165,7.576018 23.328867,8.514727 10.747758,1.044528 21.146164,-3.683032 29.74417,-9.730603 C 77.563408,67.31301 81.467664,56.104813 82.702623,45.432374 84.13707,36.428497 82.852029,26.512655 76.74,19.39 70.587162,12.001003 62.988748,4.8081707 53.334868,2.6022949 48.967344,3.0708062 51.12539,8.862343 54.948032,8.2290033 63.578474,11.724976 70.64443,18.545501 75.50552,26.38135 80.287193,35.33542 78.246819,46.005244 75.4768,55.256465 72.544965,64.687763 64.644727,71.660552 55.701255,75.321592 47.525896,79.199389 37.875944,79.608932 29.453722,76.283044 21.214933,73.623895 12.858759,68.338559 10.27,59.61 6.4152273,47.569909 5.5868223,33.269971 13.202151,22.468499 21.634514,10.137153 37.714576,5.1626052 52.078655,7.1058081 55.005188,6.7195325 54.080643,2.1955188 51.52,2.09 Z m 1.77,15.22 c -5.000702,-1.317634 -10.948155,-2.690121 -15.610299,0.298997 -3.883384,3.444817 -3.703196,9.217904 -3.902797,13.992445 -0.684139,3.570941 1.071999,1.273283 2.443188,-0.121534 -3.133047,-0.669178 -8.868316,-0.720192 -9.399353,3.799531 -0.03422,3.414149 -1.029779,9.257164 3.465477,10.137941 1.757886,0.04257 7.430759,0.915979 4.069729,-1.421435 -2.331102,-2.641252 -0.414997,4.970925 -1.036351,6.45851 0.08858,5.025297 -0.183873,10.081604 0.127437,15.087108 2.541758,3.032266 7.748552,2.743889 11.509834,2.487275 4.987812,-1.087943 3.816909,-7.010472 3.447334,-10.732315 C 48.250034,52.376992 48.258682,47.451803 48.17,42.53 c -1.680689,1.26838 -4.613434,2.89319 -0.814529,2.849172 2.553021,0.179442 7.217586,1.831379 7.684529,-1.999172 -0.111309,-3.555934 1.438609,-8.463271 -2.14187,-10.792581 -1.422235,-0.66736 -8.831595,-1.863253 -6.552093,0.158618 2.648144,3.633799 0.139933,-2.27004 3.226307,-1.919162 3.843884,1.7646 8.060978,-0.120947 6.723462,-4.78375 -0.472743,-2.900191 1.774562,-8.823991 -2.889966,-8.750391 -3.717801,1.300581 -1.443683,6.359804 -2.114902,9.329766 -0.74406,3.656119 1.066323,1.22017 2.419154,-0.122592 C 50.476147,26.01042 45.164978,24.726821 43.055625,28.522812 42.586468,31.155271 41.74822,36.174206 45.37,36.78 c 2.79674,0.513991 5.685204,-1.550663 4.900566,2.666055 -0.475104,3.005123 -0.440311,4.852599 1.721508,1.991871 0.814135,-1.344864 -4.811027,-0.517616 -6.236976,-1.368844 -2.917631,-0.0172 -2.643961,3.192242 -2.538777,5.231328 0.03394,5.455156 0.162801,10.915287 0.349851,16.356758 C 42.380456,65.63433 33.546332,59.839177 38.33,64.76 38.2948,57.327587 38.40037,49.887962 38.28795,42.460059 c -0.472852,-3.14694 -7.300107,-2.026306 -7.209931,-1.712041 2.877242,3.392965 -0.841339,-3.808453 0.828388,-4.793116 3.740655,1.292455 8.388873,0.128427 6.844219,-4.818339 -0.337427,-4.225723 0.357346,-11.246534 6.277798,-10.307605 3.203822,-0.411532 10.09113,4.062324 9.940886,-1.80575 C 54.786231,18.191995 54.104377,17.529689 53.29,17.31 Z"/>
        </symbol>
        <symbol id="icon-instagram" viewBox="0 0 85.9 85.43">
            <path d="M 30.14,3.62 C 20.616017,2.8350558 11.607236,8.7342065 7.2277466,16.993158 1.3790489,27.048956 0.91505841,39.072878 2.1992197,50.355759 c 0.9064768,7.753988 1.866938,15.597218 4.2021866,23.062835 1.6833676,5.045464 6.8453207,7.793477 11.9005857,8.198437 14.796566,2.122887 29.967561,3.379774 44.751602,0.435625 C 70.862473,80.605114 79.960685,77.563187 83.1573,69.533164 85.981006,61.232159 82.430183,52.577716 83.200195,44.088496 83.500211,33.729518 85.312344,22.645457 80.55858,12.970262 76.408726,5.0511358 67.042472,2.0542447 58.674518,1.4512622 46.5036,0.56011172 34.352863,2.7782877 22.532983,5.4536621 18.88336,8.1945014 23.969228,11.82555 26.862006,9.5838788 38.652989,7.3585189 50.845601,5.5103176 62.811973,7.3774847 69.3978,8.4186139 76.341857,12.371221 77.894298,19.331502 80.258028,29.373966 77.626875,39.690505 78.18,49.86 78.262613,56.462036 81.280195,63.946428 76.950876,69.834934 72.099175,75.690849 63.945966,76.727777 56.904219,77.9875 43.920521,79.77312 30.760184,78.403076 17.86875,76.56125 13.48734,76.044957 10.330625,72.309288 9.96,68.00125 8.1404408,54.97643 5.0891322,41.65745 8.1386004,28.558988 9.7901366,20.213357 14.743222,11.259522 23.648353,9.2062927 26.574202,8.1617692 34.529195,9.9926131 31.947031,4.49125 31.512293,3.9496416 30.827999,3.6443366 30.14,3.62 Z M 68.26,16.67 C 63.826267,15.529216 58.014999,17.651745 57.374407,22.693374 56.45467,28.082765 62.761371,31.527996 67.42125,30.135 73.022072,28.839983 74.527147,19.688029 69.587095,16.756804 65.898549,14.522589 64.716621,20.692448 67.46,21.51 c 2.086729,4.511715 -6.305517,5.394862 -4.79,1.03 2.079921,-2.362538 8.599429,0.585454 7.156875,-4.769531 C 69.527347,17.153886 68.904588,16.790312 68.26,16.67 Z M 50.58,30.81 c -7.517886,-3.235703 -17.320055,0.923932 -19.56,8.96 -2.475728,6.936913 0.105218,16.10711 7.475988,18.796106 C 48.745454,62.795562 60.80575,53.437165 60.930896,42.789143 60.593377,36.362229 53.883057,33.496914 49.39,30.14 c -4.324563,-1.968235 -4.578916,4.974891 -0.693164,5.612383 3.229989,2.224756 7.83307,5.206614 6.728203,9.795234 -1.877514,6.170914 -9.327557,11.264787 -15.616309,8.12916 -7.491273,-3.79108 -5.522171,-16.860454 2.595464,-18.600737 3.285106,-1.865061 8.403789,3.148709 9.830684,-1.445925 C 52.392177,32.453889 51.722723,31.211199 50.58,30.81 Z"/>
        </symbol>

        <symbol id="icon-mail" viewBox="0 0 85.9 85.43">
            <path d="m 58.2,31.63 c -0.382054,-3.549977 -4.12879,-5.698445 -7.459082,-4.876367 -6.406944,1.205187 -11.232535,6.954228 -12.988203,13.002886 -1.308501,4.245891 0.370623,9.733733 4.921279,11.161115 5.335755,1.902135 10.971832,-1.900808 13.072256,-6.776384 1.009488,-2.748889 3.478195,-6.887155 2.71043,-9.09668 -2.067196,-0.44812 -5.072117,-2.350732 -4.666504,1.176524 -0.727051,4.939402 -1.607592,11.006465 2.187562,14.95466 3.753661,3.389831 9.524158,1.580209 12.622118,-1.796516 C 76.515201,41.922466 77.732393,27.92443 69.959238,19.944114 63.971049,14.131455 55.220516,12.886878 47.237465,12.529796 32.577717,12.204575 17.59937,20.481216 11.524355,34.102051 8.3069913,40.273454 6.8368998,47.8406 9.8880246,54.387746 15.3111,66.197071 27.644277,73.981257 40.40375,75.30125 c 6.28965,0.525956 12.899346,1.782124 19.023535,-0.36834 8.509344,-3.587447 14.252386,-11.482498 18.468457,-19.392969 1.59023,-2.136817 2.977965,-6.567291 -0.955022,-6.954348 -3.475068,1.679842 -3.771469,6.929704 -6.534619,9.686958 C 67.013455,62.867492 63.259616,67.8259 57.787164,70.01002 50.599352,72.538545 42.824086,70.881207 35.61549,69.321339 26.304308,66.873656 17.733525,60.386923 13.885244,51.433601 c -2.444871,-6.002494 0.55158,-12.30955 3.367616,-17.594439 5.567657,-10.68697 17.867198,-16.27445 29.574352,-16.274254 6.078985,0.09056 12.57754,0.897248 17.653761,4.494419 5.945212,4.196653 7.23849,12.724465 4.065589,19.009423 -1.562784,3.077845 -4.50589,7.347453 -8.430135,6.532287 -2.677282,-2.448538 -1.641599,-6.697908 -1.462921,-9.924079 1.606367,-2.717753 -0.714491,-7.490815 -3.886885,-4.747563 -1.97771,4.082452 -2.302027,9.249678 -5.940684,12.407324 -2.626414,2.106622 -6.827964,0.970063 -6.44375,-2.852969 0.743317,-4.906869 4.413431,-9.52557 9.190574,-10.992134 2.238515,0.156232 2.433968,5.08865 5.54513,2.774048 C 57.982417,33.716139 58.434686,32.631154 58.2,31.63 Z"/>
        </symbol>
    </defs>
</svg>