<?xml version="1.0" encoding="utf-8"?>
<!-- Generator: Adobe Illustrator 23.0.0, SVG Export Plug-In . SVG Version: 6.00 Build 0)  -->
<svg version="1.1" id="Calque_1" xmlns="http://www.w3.org/2000/svg" xmlns:xlink="http://www.w3.org/1999/xlink" x="0px" y="0px"
	 viewBox="0 0 85.9 85.43" style="enable-background:new 0 0 85.9 85.43;" xml:space="preserve">
<g>
	<g>
		<path d="M50.58,30.81c-7.9-3.08-16.94,0.65-19.56,8.96c-2.43,7.71,0.11,16.33,8.22,19.07c7.66,2.59,15.6-1.71,19.5-8.43
			c1.9-3.27,3.12-7.55,1.31-11.13c-2.01-3.96-7.26-6.63-10.66-9.14c-2.59-1.91-5.09,2.43-2.52,4.32c4.67,3.44,11.49,6.79,7.56,13.43
			c-2.55,4.3-7.44,7.72-12.62,6.5c-5.83-1.37-7.69-7.2-6.15-12.58c1.77-6.2,7.86-8.42,13.6-6.18C52.24,36.8,53.54,31.97,50.58,30.81
			L50.58,30.81z"/>
	</g>
</g>
<g>
	<g>
		<path d="M68.26,16.67c-3.84-0.75-8.31,0.08-10.21,3.91c-1.86,3.74-0.11,7.75,3.72,9.17c3.62,1.34,8.16,0.73,9.87-3.13
			c1.54-3.47,1.34-8.77-2.78-10.17c-3.05-1.04-4.36,3.79-1.33,4.82c-0.24-0.08-0.14-0.02-0.07,0.24c0.09,0.35,0,0.9-0.02,1.26
			c-0.04,0.65-0.06,1.56-0.49,2.09c-0.79,0.97-2.74,0.59-3.74,0.11c-1.03-0.49-1.21-1.48-0.54-2.43c0.91-1.3,2.87-1.32,4.26-1.05
			C70.07,22.1,71.42,17.29,68.26,16.67L68.26,16.67z"/>
	</g>
</g>
<g>
	<g>
		<path d="M30.14,3.62C10.54,2.69,1.5,22.81,1.61,39.6c0.06,9.8,1.59,20.28,3.62,29.86c0.76,3.59,2.14,7.15,5.18,9.4
			c3.57,2.66,8.65,2.8,12.9,3.38c11.08,1.51,22.3,2.22,33.43,0.78c8.04-1.04,18.13-2.74,23.82-9.17c6.33-7.17,2.68-17.32,2.59-25.81
			c-0.12-10.47,2.12-21.54-1.18-31.74C74.88-5.56,39.25,1.79,23.07,5.28c-3.14,0.68-1.81,5.5,1.33,4.82
			c8.74-1.89,17.63-3.21,26.58-3.46c7.82-0.22,17.96,0.42,23.68,6.58c5.59,6.02,4.18,17.22,3.81,24.74
			c-0.19,3.96-0.43,7.93-0.29,11.9c0.14,4.01,1.01,7.96,1.1,11.96c0.22,9.84-7.64,13.05-15.99,14.99
			c-8.45,1.96-17.19,2.29-25.83,1.83c-4.01-0.21-8-0.6-11.98-1.11c-4.33-0.55-11.35-0.47-13.85-4.69c-1.72-2.9-1.93-6.69-2.41-9.94
			c-0.65-4.4-1.36-8.8-1.89-13.21C5.41,33.75,8.35,7.58,30.14,8.62C33.36,8.78,33.35,3.78,30.14,3.62L30.14,3.62z"/>
	</g>
</g>
</svg>
