<?xml version="1.0" encoding="UTF-8" standalone="no"?>
<!-- Generator: Adobe Illustrator 23.0.0, SVG Export Plug-In . SVG Version: 6.00 Build 0)  -->

<svg
        xmlns="http://www.w3.org/2000/svg"
        version="1.1"
        viewBox="0 0 85.9 85.43">

    <path d="M 30.14,3.62 C 20.616017,2.8350558 11.607236,8.7342065 7.2277466,16.993158 1.3790489,27.048956 0.91505841,39.072878 2.1992197,50.355759 c 0.9064768,7.753988 1.866938,15.597218 4.2021866,23.062835 1.6833676,5.045464 6.8453207,7.793477 11.9005857,8.198437 14.796566,2.122887 29.967561,3.379774 44.751602,0.435625 C 70.862473,80.605114 79.960685,77.563187 83.1573,69.533164 85.981006,61.232159 82.430183,52.577716 83.200195,44.088496 83.500211,33.729518 85.312344,22.645457 80.55858,12.970262 76.408726,5.0511358 67.042472,2.0542447 58.674518,1.4512622 46.5036,0.56011172 34.352863,2.7782877 22.532983,5.4536621 18.88336,8.1945014 23.969228,11.82555 26.862006,9.5838788 38.652989,7.3585189 50.845601,5.5103176 62.811973,7.3774847 69.3978,8.4186139 76.341857,12.371221 77.894298,19.331502 80.258028,29.373966 77.626875,39.690505 78.18,49.86 78.262613,56.462036 81.280195,63.946428 76.950876,69.834934 72.099175,75.690849 63.945966,76.727777 56.904219,77.9875 43.920521,79.77312 30.760184,78.403076 17.86875,76.56125 13.48734,76.044957 10.330625,72.309288 9.96,68.00125 8.1404408,54.97643 5.0891322,41.65745 8.1386004,28.558988 9.7901366,20.213357 14.743222,11.259522 23.648353,9.2062927 26.574202,8.1617692 34.529195,9.9926131 31.947031,4.49125 31.512293,3.9496416 30.827999,3.6443366 30.14,3.62 Z M 68.26,16.67 C 63.826267,15.529216 58.014999,17.651745 57.374407,22.693374 56.45467,28.082765 62.761371,31.527996 67.42125,30.135 73.022072,28.839983 74.527147,19.688029 69.587095,16.756804 65.898549,14.522589 64.716621,20.692448 67.46,21.51 c 2.086729,4.511715 -6.305517,5.394862 -4.79,1.03 2.079921,-2.362538 8.599429,0.585454 7.156875,-4.769531 C 69.527347,17.153886 68.904588,16.790312 68.26,16.67 Z M 50.58,30.81 c -7.517886,-3.235703 -17.320055,0.923932 -19.56,8.96 -2.475728,6.936913 0.105218,16.10711 7.475988,18.796106 C 48.745454,62.795562 60.80575,53.437165 60.930896,42.789143 60.593377,36.362229 53.883057,33.496914 49.39,30.14 c -4.324563,-1.968235 -4.578916,4.974891 -0.693164,5.612383 3.229989,2.224756 7.83307,5.206614 6.728203,9.795234 -1.877514,6.170914 -9.327557,11.264787 -15.616309,8.12916 -7.491273,-3.79108 -5.522171,-16.860454 2.595464,-18.600737 3.285106,-1.865061 8.403789,3.148709 9.830684,-1.445925 C 52.392177,32.453889 51.722723,31.211199 50.58,30.81 Z"/>
</svg>