<?xml version="1.0" encoding="utf-8"?>
<!-- Generator: Adobe Illustrator 23.0.0, SVG Export Plug-In . SVG Version: 6.00 Build 0)  -->
<svg version="1.1" id="Calque_1" xmlns="http://www.w3.org/2000/svg" xmlns:xlink="http://www.w3.org/1999/xlink" x="0px" y="0px"
	 viewBox="0 0 85.9 85.43" style="enable-background:new 0 0 85.9 85.43;" xml:space="preserve">
<g>
	<g>
		<path d="M58.2,31.63c-1.38-6.82-8.84-5.66-13.15-2.42c-4.49,3.39-8.57,9.64-7.53,15.53c0.98,5.58,6.63,7.99,11.71,5.94
			c6.18-2.51,7.92-9.77,9.83-15.47c-1.61-0.44-3.21-0.89-4.82-1.33c-1.17,5.62-3,16.84,4.68,18.86c6.42,1.69,12.14-5.04,14.41-10.19
			c2.73-6.2,2.57-13.69-0.98-19.54c-4.45-7.32-13.34-9.45-21.33-10.26c-9-0.92-17.8,0.99-25.51,5.74
			c-7.62,4.69-11.9,10.33-15.31,18.59c-3.6,8.72-2.28,16.2,3.49,23.59c4.81,6.17,11.54,10.76,19.02,13.04
			c5,1.52,10.34,1.96,15.53,2.29c4.4,0.28,8.68,0.28,12.71-1.73c8.32-4.13,14.76-13.64,18.46-21.86c1.31-2.91-3-5.46-4.32-2.52
			c-2.99,6.64-7.31,12.86-12.91,17.57c-6.58,5.54-16.64,3.92-24.5,2.34c-7.41-1.49-14.11-5.25-19.09-10.97
			c-2.74-3.15-5.28-7.01-5.58-11.25c-0.34-4.75,1.95-9.27,4.06-13.39c7.71-15.05,27.24-19.74,42.55-14.65
			c8.39,2.79,12.46,10.71,9.84,19.17c-0.97,3.14-2.94,6.44-5.81,8.22c-7.26,4.51-5.15-9.03-4.59-11.72c0.65-3.15-3.8-4.39-4.82-1.33
			c-1.27,3.8-3.38,13.58-9.03,12.31c-1.38,0.33-2.1-0.25-2.15-1.76c-0.68-0.82-0.86-1.7-0.52-2.64c0.11-1.31,0.73-2.64,1.37-3.77
			c0.67-1.18,1.49-2.3,2.43-3.28c0.85-0.87,6.26-5.63,7.04-1.78C54.01,36.11,58.83,34.78,58.2,31.63L58.2,31.63z"/>
	</g>
</g>
</svg>
