<?xml version="1.0" encoding="UTF-8" standalone="no"?>

<svg
        xmlns="http://www.w3.org/2000/svg"
        version="1.1"
        viewBox="0 0 85.9 85.43">
    <path d="m 58.2,31.63 c -0.382054,-3.549977 -4.12879,-5.698445 -7.459082,-4.876367 -6.406944,1.205187 -11.232535,6.954228 -12.988203,13.002886 -1.308501,4.245891 0.370623,9.733733 4.921279,11.161115 5.335755,1.902135 10.971832,-1.900808 13.072256,-6.776384 1.009488,-2.748889 3.478195,-6.887155 2.71043,-9.09668 -2.067196,-0.44812 -5.072117,-2.350732 -4.666504,1.176524 -0.727051,4.939402 -1.607592,11.006465 2.187562,14.95466 3.753661,3.389831 9.524158,1.580209 12.622118,-1.796516 C 76.515201,41.922466 77.732393,27.92443 69.959238,19.944114 63.971049,14.131455 55.220516,12.886878 47.237465,12.529796 32.577717,12.204575 17.59937,20.481216 11.524355,34.102051 8.3069913,40.273454 6.8368998,47.8406 9.8880246,54.387746 15.3111,66.197071 27.644277,73.981257 40.40375,75.30125 c 6.28965,0.525956 12.899346,1.782124 19.023535,-0.36834 8.509344,-3.587447 14.252386,-11.482498 18.468457,-19.392969 1.59023,-2.136817 2.977965,-6.567291 -0.955022,-6.954348 -3.475068,1.679842 -3.771469,6.929704 -6.534619,9.686958 C 67.013455,62.867492 63.259616,67.8259 57.787164,70.01002 50.599352,72.538545 42.824086,70.881207 35.61549,69.321339 26.304308,66.873656 17.733525,60.386923 13.885244,51.433601 c -2.444871,-6.002494 0.55158,-12.30955 3.367616,-17.594439 5.567657,-10.68697 17.867198,-16.27445 29.574352,-16.274254 6.078985,0.09056 12.57754,0.897248 17.653761,4.494419 5.945212,4.196653 7.23849,12.724465 4.065589,19.009423 -1.562784,3.077845 -4.50589,7.347453 -8.430135,6.532287 -2.677282,-2.448538 -1.641599,-6.697908 -1.462921,-9.924079 1.606367,-2.717753 -0.714491,-7.490815 -3.886885,-4.747563 -1.97771,4.082452 -2.302027,9.249678 -5.940684,12.407324 -2.626414,2.106622 -6.827964,0.970063 -6.44375,-2.852969 0.743317,-4.906869 4.413431,-9.52557 9.190574,-10.992134 2.238515,0.156232 2.433968,5.08865 5.54513,2.774048 C 57.982417,33.716139 58.434686,32.631154 58.2,31.63 Z"/>
</svg>